<svg xmlns="http://www.w3.org/2000/svg" xmlns:xlink="http://www.w3.org/1999/xlink" width="32" height="32.013999938964844" viewBox="0 0 32 32.013999938964844" fill="rgb(94, 94, 94)" data-svg-content="true"><g><path d="M 29.058,0c-0.018,0-0.036,0-0.054,0c-0.016,0-0.030-0.002-0.046,0L 18.384,0 C 18.078,0.016, 17.382,0.494, 17.292,0.584L 4.562,13.312c-0.78,0.78-0.78,2.044,0,2.824l 1.588,1.588L 4.562,19.312 c-0.78,0.78-0.78,2.044,0,2.824l 9.292,9.292c 0.39,0.39, 0.9,0.584, 1.412,0.584s 1.022-0.194, 1.412-0.584l 12.728-12.73 C 29.498,18.608, 30,17.992, 30,17.608l0-6 L 30,6.994 l0-6 C 30.028,0.436, 29.606,0, 29.058,0z M 27,1.992c 0.552,0, 1,0.448, 1,1 s-0.448,1-1,1S 26,3.544, 26,2.992S 26.448,1.992, 27,1.992z M 27.994,17.286l-12.724,12.73l-9.292-9.288l 1.588-1.588l 6.29,6.29 c 0.39,0.39, 0.9,0.584, 1.412,0.584s 1.022-0.194, 1.412-0.584L 28,14.108l0,3.162 C 27.994,17.28, 27.99,17.286, 27.994,17.286 C 27.992,17.286, 27.992,17.286, 27.994,17.286z"><svg xmlns="http://www.w3.org/2000/svg" xmlns:xlink="http://www.w3.org/1999/xlink" width="32" height="33.762001037597656" viewBox="0 0 32 33.762001037597656" fill="rgb(94, 94, 94)" data-svg-content="true"><g><path d="M 22,6c0-3.212-2.788-6-6-6S 10,2.788, 10,6c0,3.212, 2.788,6, 6,6S 22,9.212, 22,6zM 16,14c-5.256,0-10,5.67-10,12.716s 20,7.046, 20,0S 21.256,14, 16,14z"></path></g></svg></path></g></svg>