<?xml version="1.0" standalone="no"?>
<!DOCTYPE svg PUBLIC "-//W3C//DTD SVG 20010904//EN"
 "http://www.w3.org/TR/2001/REC-SVG-20010904/DTD/svg10.dtd">
<svg version="1.0" xmlns="http://www.w3.org/2000/svg"
 width="1280.000000pt" height="772.000000pt" viewBox="0 0 1280.000000 772.000000"
 preserveAspectRatio="xMidYMid meet">
<metadata>
Created by potrace 1.15, written by Peter Selinger 2001-2017
</metadata>
<g transform="translate(0.000000,772.000000) scale(0.100000,-0.100000)"
fill="#000000" stroke="none">
<path d="M9592 6973 c-68 -412 -127 -756 -130 -766 -4 -9 -41 188 -82 439 -41
251 -79 458 -85 460 -5 2 -689 -110 -1520 -250 l-1510 -253 2 -25 c4 -59 347
-2114 354 -2122 4 -5 122 12 271 38 145 25 542 96 883 156 341 61 624 110 630
110 5 0 217 -148 470 -329 253 -182 461 -328 463 -326 2 2 -76 171 -172 376
-97 205 -175 374 -173 375 2 2 151 24 333 50 181 25 330 47 332 49 1 1 -18
125 -43 275 -25 151 -44 279 -43 285 3 10 73 1 471 -66 38 -6 67 -16 66 -22 0
-7 -78 -176 -173 -377 -95 -201 -172 -367 -170 -368 2 -3 681 478 905 641 26
18 28 18 195 -12 93 -17 351 -62 574 -101 223 -39 533 -93 689 -121 156 -27
291 -49 299 -47 13 3 48 193 193 1073 107 645 174 1072 168 1076 -5 3 -110 22
-232 43 -122 20 -298 51 -392 67 -282 49 -1717 294 -2070 354 -181 30 -341 58
-355 61 l-25 5 -123 -748z"/>
<path d="M3006 7631 c-2 -3 -48 -274 -101 -601 -54 -327 -101 -598 -104 -602
-3 -4 -32 155 -65 353 -32 197 -62 359 -66 359 -7 0 -432 -70 -2214 -365 -247
-41 -450 -76 -452 -78 -4 -4 351 -2145 357 -2151 2 -2 303 46 670 106 l665
110 464 -331 c254 -182 464 -330 466 -329 1 2 -77 171 -174 376 -96 204 -173
375 -169 378 3 3 172 33 376 67 304 50 371 63 371 76 0 9 -16 108 -35 221 -19
112 -33 205 -32 206 7 7 437 -71 437 -79 0 -5 -77 -172 -171 -371 -94 -198
-173 -367 -176 -374 -3 -7 206 138 464 322 l469 335 664 -110 c365 -60 667
-106 671 -102 3 5 84 478 179 1053 94 575 174 1057 177 1071 l5 25 -169 28
c-188 31 -2445 403 -2481 409 -12 3 -24 2 -26 -2z"/>
<path d="M9592 2883 c-68 -412 -127 -756 -130 -766 -4 -10 -40 186 -81 435
-41 249 -77 456 -80 460 -3 4 -688 -107 -1521 -246 l-1515 -252 2 -27 c4 -60
347 -2113 354 -2121 8 -9 120 10 1239 209 294 53 542 94 550 92 8 -3 220 -151
470 -330 250 -179 456 -324 458 -322 2 2 -76 171 -172 376 -97 204 -175 373
-174 375 2 1 152 24 333 49 182 26 331 49 333 50 1 1 -18 124 -43 273 -25 149
-45 277 -45 285 0 11 54 5 270 -31 163 -27 270 -50 269 -56 0 -6 -78 -175
-173 -376 -95 -201 -172 -367 -170 -368 1 -2 208 143 460 323 252 180 462 329
468 331 6 2 402 -65 879 -149 844 -149 868 -153 872 -133 15 64 353 2131 349
2135 -4 5 -124 25 -1794 311 -520 89 -1020 175 -1112 191 -92 16 -169 29 -170
29 -2 0 -59 -336 -126 -747z"/>
<path d="M3007 3543 c-3 -5 -49 -276 -102 -603 -54 -327 -101 -598 -104 -602
-3 -4 -32 155 -65 353 -32 197 -62 359 -66 359 -14 0 -2664 -440 -2667 -443
-1 -2 76 -475 172 -1052 95 -578 175 -1061 177 -1075 2 -18 9 -25 23 -23 11 0
313 49 671 108 l650 107 464 -331 c254 -182 464 -330 465 -329 2 2 -76 171
-173 376 -96 205 -173 375 -170 378 3 3 173 32 377 66 309 51 371 64 371 77 0
9 -16 108 -35 221 -19 112 -33 205 -32 206 1 1 100 -14 220 -34 208 -34 218
-36 213 -56 -3 -12 -82 -183 -176 -380 -93 -198 -169 -360 -168 -361 2 -1 212
148 468 331 l465 333 664 -110 c365 -61 667 -106 671 -102 4 4 85 478 180
1053 94 575 174 1056 177 1070 4 25 2 26 -69 38 -1106 182 -2558 423 -2575
427 -12 3 -24 2 -26 -2z"/>
</g>
</svg>
