<?xml version="1.0" standalone="no"?>
<!DOCTYPE svg PUBLIC "-//W3C//DTD SVG 20010904//EN"
 "http://www.w3.org/TR/2001/REC-SVG-20010904/DTD/svg10.dtd">
<svg version="1.0" xmlns="http://www.w3.org/2000/svg"
 width="1280.000000pt" height="905.000000pt" viewBox="0 0 1280.000000 905.000000"
 preserveAspectRatio="xMidYMid meet">
<metadata>
Created by potrace 1.15, written by Peter Selinger 2001-2017
</metadata>
<g transform="translate(0.000000,905.000000) scale(0.100000,-0.100000)"
fill="#000000" stroke="none">
<path d="M11240 7724 c-74 -9 -198 -36 -260 -56 -76 -24 -216 -93 -286 -139
-67 -45 -250 -187 -358 -279 -143 -121 -302 -256 -447 -380 -251 -216 -545
-448 -749 -592 -80 -56 -394 -281 -514 -368 -49 -36 -141 -107 -203 -158
l-114 -93 -699 396 -699 395 -2881 0 c-2874 0 -2881 0 -2921 -20 -51 -27 -95
-88 -109 -153 -7 -36 -10 -669 -8 -2087 3 -1983 3 -2036 22 -2074 11 -21 35
-54 54 -72 l35 -34 2919 0 2918 0 763 431 c419 238 833 472 919 521 161 91
194 119 217 187 8 24 11 256 11 805 l0 771 258 63 c141 35 293 74 337 87 44
12 172 48 285 80 210 58 476 143 680 215 461 164 840 365 1080 572 301 261
505 667 528 1053 18 300 -20 491 -130 660 -71 109 -217 208 -364 245 -79 20
-217 32 -284 24z m260 -201 c82 -22 132 -56 195 -129 141 -167 191 -391 151
-674 -40 -282 -158 -513 -371 -725 -221 -221 -507 -406 -885 -572 -120 -53
-180 -77 -430 -169 -80 -29 -380 -126 -475 -153 -38 -11 -140 -40 -225 -64
-168 -49 -596 -167 -604 -167 -4 0 -6 87 -6 193 0 105 -5 209 -11 230 -17 61
-62 102 -202 182 -73 41 -138 78 -145 83 -15 10 119 110 503 375 479 331 664
474 1216 938 475 398 724 570 929 639 115 39 248 44 360 13z m-3984 -2910
c110 -37 205 -120 253 -222 23 -50 26 -68 26 -166 0 -103 -2 -114 -32 -178
-78 -164 -263 -261 -434 -228 -225 44 -366 241 -338 469 18 142 139 283 282
327 60 19 184 18 243 -2z"/>
</g>
</svg>
